<?xml version="1.0" encoding="utf-8"?>
<!-- Generator: Adobe Illustrator 28.0.0, SVG Export Plug-In . SVG Version: 6.00 Build 0)  -->
<svg version="1.1" id="Слой_1" xmlns="http://www.w3.org/2000/svg" xmlns:xlink="http://www.w3.org/1999/xlink" x="0px" y="0px"
	 viewBox="0 0 1000 205.7666626" style="enable-background:new 0 0 1000 205.7666626;" xml:space="preserve">
<style type="text/css">
	.st0{fill-rule:evenodd;clip-rule:evenodd;fill:#DA291C;}
</style>
<path class="st0" d="M10.7139111,0.0880237C24.6734676-0.026774,38.6425018,0.078545,52.6020584,0.0497259
	c6.4148865-0.1912976,12.034996,5.7160454,11.8052063,12.0926332c0.019249,17.2340202,0.019249,34.4680405-0.0095749,51.7020569
	c0,1.9627647-0.0189514,4.1937065,1.5321045,5.6584053c1.6466141,1.9821091,4.4040604,1.6852036,6.7115021,1.7617035
	c6.3480606-0.1053162,12.7053986,0.0862656,19.0531693-0.0860748c2.9108276,0.1053162,5.6012497-2.4703064,5.4574356-5.4190445
	c0.1149902-17.8850861,0-35.789505,0.0384903-53.6840706c-0.182106-6.2903214,5.4478683-12.1979513,11.7861557-12.0256119
	c13.7104263-0.0094787,27.4211426-0.0189574,41.1412506,0.0097659c6.1947632,0.0095745,11.5661316,5.7638226,11.364975,11.9200058
	c0.1053162,58.126709,0,116.2531357,0.0575409,174.3797607c1.0818176,7.1903076-4.7202148,14.7061615-12.2361603,14.2466888
	c-13.4330597,0.0288239-26.8755875,0.0575409-40.308548-0.0192413c-4.9308472,0.1437988-9.5458298-3.3414917-11.106369-7.9466095
	c-1.0245667-2.9491272-0.6510696-6.1182709-0.7086105-9.1820984c0.0097656-17.234024,0.0575409-34.4582672-0.018959-51.6922913
	c0.1912994-2.9297791-2.4225235-5.7064743-5.3906097-5.4861603c-7.343605-0.0767899-14.6966934-0.0767899-22.0402985,0.0095749
	c-3.0160446-0.2011642-5.5054092,2.6808395-5.2755203,5.6202011c-0.0862732,17.1764832-0.019249,34.3531494-0.019249,51.5297241
	c-0.0860748,3.5042419,0.4405212,7.2575378-1.254158,10.4934082c-1.8766899,4.002121-6.1564713,6.7212677-10.5892525,6.6734924
	c-13.4330559,0.0575409-26.8755913,0.0095673-40.3181267,0.0193329
	c-6.2617898,0.3731232-12.3224201-5.0171967-12.2361546-11.3649597C-0.0094787,131.1528473,0.0575425,73.0454712,0,14.9380045
	c0.0575425-2.7861671-0.2488401-5.7732058,1.1393602-8.3105316C2.9775598,3.0562963,6.6542468,0.3371511,10.7139111,0.0880237
	L10.7139111,0.0880237z M418.8344421,0.4232254c10.6278381-0.9094775,21.3702087-0.3541591,31.8542175,1.6756256
	c16.3052979,2.7479646,32.6298523,8.3871269,45.2201538,19.4551983c4.0406189,3.6095695,9.258606,7.4776497,9.2969055,13.4425373
	c0.3541565,3.3796844-1.0818176,6.6064682-3.2744751,9.1052094c-6.4053955,7.6215553-12.867981,15.1947556-19.2926331,22.7969704
	c-2.958313,3.6096649-8.0424194,5.6777496-12.6093445,4.2126617c-4.6148987-1.0722427-7.2575378-5.3520203-10.7713623-8.1287079
	c-6.2520142-5.6202087-14.4573364-8.9522133-22.8637085-9.2106285
	c-11.3362427-0.5745621-22.1936951,5.7255249-28.8383484,14.6682549c-7.4681702,9.8040543-10.263916,22.4520035-9.9479675,34.601799
	c0.2203064,8.7033691,2.9012756,17.7510376,9.1149902,24.0893326c6.683075,6.8841324,16.4776306,9.8714523,25.8605042,10.2927322
	c2.9778442,0.2105408,4.3085022-3.0161438,4.4331665-5.4959259c0.2488403-2.5275726,1.1105347-6.2615128-1.9245605-7.4773712
	c-3.9062805-1.1779404-8.5405273-1.5128555-11.1160278-5.1417694c-4.7200317-5.3998032-1.8477783-12.9061737-1.1966248-19.1679611
	c0.9476624-4.5861664,0.8041687-9.5075302,2.8244629-13.7967911c2.3552246-4.5190506,7.7553101-7.1711731,12.7721252-6.1467056
	c17.8468933,2.6233978,35.6744385,5.3327789,53.5118408,8.0520172c6.3095398,0.9287262,10.962738,7.5351944,9.7563477,13.7969818
	c-2.8532715,19.2349854-5.5914612,38.4891281-8.5404968,57.7146225c-1.4457397,9.1915741-7.420105,17.5594635-15.9700928,21.3990173
	c-13.6341248,6.0413818-28.8861389,7.0754242-43.6118469,6.5966949
	c-17.9519043-0.7946777-36.3157043-3.6574402-52.2476196-12.4467926
	c-18.1437683-9.5840302-33.0222778-25.5638885-40.3660889-44.8179321
	c-5.9839478-15.0511322-6.9989319-31.6533356-4.9786072-47.604187c2.537323-18.9479446,10.1488037-37.3978233,22.7966614-51.8455811
	C373.7771606,13.5116014,395.9229736,2.6636481,418.8344421,0.4232254L418.8344421,0.4232254z M926.3573608,16.8242683
	c18.8328857-2.4127636,39.0159302-1.5797853,56.0965576,7.525425c4.5289307,1.9725304,9.3446655,5.2277489,9.909729,10.5797729
	c0.4404297,7.0469933,0.0477905,14.1129417,0.2011108,21.1691208c-0.1438599,3.6001892,0.5264893,7.5927353-1.5608521,10.7907028
	c-2.7476807,4.4998016-9.1434937,6.4625626-13.7872314,3.7817154c-2.9584961-1.7711792-5.4285278-4.2509613-8.4158325-5.9743652
	c-7.1807251-4.3085022-15.4626465-7.1808395-23.8977661-7.1042442c-5.170166-0.0192451-11.0680542,2.3457413-12.8872681,7.5734901
	c-1.4169312,3.4657593-0.4117432,7.5443802,2.1638794,10.1965103c3.5616455,3.925621,8.7988281,5.4478607,13.4614868,7.6310272
	c11.4320068,5.064888,23.4958496,9.4022141,33.2521973,17.473381c9.6798706,7.7265854,16.5063477,19.0434952,18.4404297,31.3178482
	c3.1499023,20.8819885-4.9884033,43.5448151-21.8967285,56.5373535
	c-15.5394287,12.2263947-36.2297363,16.0276489-55.5605469,14.2372131
	c-16.4106445-1.3214569-32.6011353-7.2958221-45.3447876-17.8372955
	c-5.4285278-4.5861664-6.8265381-13.0786133-3.3221436-19.2256012c3.0733032-5.533844,6.1083984-11.0968018,9.4020996-16.4965973
	c3.925354-6.1659546,13.0593872-7.9086914,19.0244141-3.7054138c7.3148804,5.0936127,15.156189,9.9096527,24.0221558,11.6617889
	c4.4140015,0.6223297,9.3256226,0.976593,13.3372192-1.3691559c3.7053833-2.077652,5.4765625-7.3724213,3.1883545-11.0873108
	c-2.6138306-4.6244659-7.7457886-6.8554077-12.2456055-9.2010498
	c-13.3853149-6.4724274-27.8713379-11.3457336-39.3605957-21.0926285
	c-8.4544678-6.8072433-14.6871948-16.5636139-16.3820801-27.3637924
	c-2.7189331-16.9563599,1.3787231-35.3297386,12.5523071-48.5999336
	C896.5614624,26.3412762,911.2679443,19.1988277,926.3573608,16.8242683L926.3573608,16.8242683z M580.6331787,18.6912861
	c-14.8690186,1.1010628-29.5945435,5.2084084-42.510498,12.7341213
	c-15.750061,8.9902229-28.5702515,22.9785042-36.2774963,39.3796387c-0.8809509,2.0203094-1.8768005,4.2414856-1.2831726,6.4913864
	c0.87146,5.0937042,6.5489197,6.951149,8.8278198,11.2596588c4.3851318,6.1851883,3.7147217,14.0841141,2.3170471,21.1213455
	c-2.1544495,14.4094543-4.2512512,28.8284836-6.3863831,43.2478104c-1.0530701,7.0561829,1.7426758,14.1891479,6.3480835,19.484024
	c16.9370728,21.3988953,44.2433472,33.2328339,71.3007812,33.3573914
	c18.8425903-0.0382843,38.1735229-1.9438019,55.5701294-9.6893463c6.9415894-2.9967957,13.7394409-7.4010468,17.4063721-14.2276306
	c4.0883789-7.3436127,3.7341919-16.0468903,3.4755249-24.175705c-0.1723633-16.2669983-0.0670166-32.5337067-0.2678833-48.8008041
	c-0.0768433-6.1851883-5.7734985-11.7191315-11.9970093-11.4031754c-17.9136353-0.0958405-35.8180542,0.1818237-53.722168,0.1053238
	c-6.5489502-0.3829803-12.81073,5.495636-12.2937012,12.1497879c0.2298584,6.692543-0.4976807,13.3852844-0.1052246,20.0778198
	c0.0957642,4.8444824,3.3796997,9.3923492,7.9658203,10.972229c2.7767944,0.8328857,5.7542725,0.488205,8.5499878,1.2544556
	c3.0926514,1.8476715,2.2214966,5.8977661,2.2214966,8.9041443c0.0094604,2.2499084-2.0203247,4.3467102-4.2895508,4.3274689
	c-8.9616699,0.5075378-18.5551758-0.7563934-25.9465942-6.2232056c-7.1234741-5.1607361-11.230835-13.5191345-12.8586426-22.0020065
	c-2.1925049-11.4415741-1.6947021-23.773468,3.4371948-34.4013062c4.5574341-9.6988297,13.1937256-17.8658371,23.821228-20.2880783
	c9.1151123-1.8670197,19.0054932-0.4500046,26.8661499,4.6819077c4.3179932,2.3935165,7.9465942,6.8265839,13.2702026,6.769043
	c4.4902954,0.3352051,8.8850708-2.1926498,11.0775146-6.089447c5.3330078-8.7318115,10.7233276-17.4348946,16.0563965-26.166893
	c3.1691284-5.0552177,1.8479614-12.2263908-2.8914795-15.8360558c-4.7585449-3.7244625-9.9957886-6.8265858-15.4628906-9.3733902
	C616.6044922,18.844574,598.2406006,17.8871288,580.6331787,18.6912861L580.6331787,18.6912861z M185.8593292,19.1124668
	c12.0255127-0.3446808,24.0798492-0.0382977,36.1148529-0.1435204c4.7297821-0.3254356,9.5264893,2.1830711,11.6809235,6.4436073
	c1.7999115,3.2456455,1.3211823,7.0564709,1.3881989,10.6180706c-0.0477753,32.5340042,0.0094757,65.0774765-0.0288086,97.621048
	c-0.1148071,4.6724396,1.1491241,9.6703033,4.6244507,12.9830627c5.1416779,5.1607208,14.4193268,5.6394501,19.7905884,0.5840454
	c3.7722473-3.3797913,4.9786377-8.6745605,4.9593811-13.5573425c-0.0095825-34.142601-0.0095825-68.2947769,0-102.4370956
	c-0.401947-6.5584068,5.5724182-12.5330582,12.1117859-12.226675c11.8627625-0.0382977,23.7349854-0.0670204,35.5979309,0.0192451
	c6.4436035-0.0862656,12.0445557,5.8213634,11.7861328,12.2361526c0.0285339,36.0668793,0.0190735,72.1337585,0,108.2009277
	c0.0860901,17.4541321-8.2245483,34.5637817-21.6958008,45.583786
	c-14.7349854,12.4467926-34.3339844,18.0097351-53.4062195,17.9233856
	c-16.860611-0.1912994-34.2097168-3.7434235-48.4756622-13.1073456
	c-11.5755157-7.4776459-19.7615814-19.6754913-22.8253937-33.0700684
	c-2.4988403-9.7373199-1.9532928-19.8670959-2.0105438-29.8246155c0.0094757-31.9116669-0.0382996-63.8135567,0.0189514-95.7253113
	C175.260498,25.3455334,179.9901886,19.7540512,185.8593292,19.1124668L185.8593292,19.1124668z M682.706543,18.8063717
	c3.0828857-0.6321049,6.2617798-0.287426,9.4022217-0.3640213c9.9094238,0.0477772,19.8286133-0.0477753,29.7478027,0.0382977
	c4.6721802,0.0094795,9.0476685,3.1499004,10.8476562,7.4201069c1.2926636,3.2074432,0.7851562,6.7500896,0.8809814,10.1202946
	c-0.0287476,50.7446136,0,101.4891281-0.0094604,152.2241821c0.3924561,6.4819031-5.2085571,12.4467926-11.7096558,12.3990173
	c-12.1691895,0-24.3477783,0.0094757-36.5073242-0.0477753c-6.5585327,0.220108-12.178894-5.8978729-11.8244629-12.3607178
	c0-52.3436432,0.0094604-104.6870041-0.0097656-157.0306549C673.1415405,25.5658417,677.2106934,20.098732,682.706543,18.8063717
	L682.706543,18.8063717z M755.6254883,19.2753277c3.2937012-1.1010609,6.8170166-0.679882,10.225647-0.7469025
	c26.8275146,0.0192451,53.6455688,0.0097656,80.4638062,0c6.3765869-0.287138,12.4945679,5.2564716,12.2744141,11.7478561
	c0.0189819,7.6693325,0.0285645,15.3382778,0,23.0076084c0.2008667,6.1659508-5.2947388,11.6040497-11.3744507,11.7380905
	c-12.178894,0.0097656-24.3669434-0.0094757-36.5458374-0.0670166c-2.9776001-0.1912994-5.6104736,2.3842239-5.6010132,5.3425446
	c-0.2202759,3.9065704-0.3733521,7.8798676,0.2299194,11.7671967c0.3731689,2.5468063,3.0253296,4.2990265,5.5148926,4.1361618
	c6.7020264,0.1147995,13.4138184-0.0863571,20.1253052,0.0382996c4.5383911-0.0575409,8.9616699,2.7096634,10.8671875,6.8360672
	c1.4552002,2.7766876,1.1295776,6.0030823,1.1871338,9.0287094c-0.0958252,6.0224304,0.0862427,12.0543365-0.0575562,18.0669022
	c-0.1148071,5.8595657-5.227417,11.1736832-11.1063232,11.3460159c-7.0276489,0.2393646-14.0648804-0.076889-21.0827637,0.095459
	c-2.7861938-0.1052246-5.5436401,2.058609-5.6011963,4.9406128c-0.3637085,4.1361694-0.3446655,8.3295746-0.019043,12.4755096
	c0.057251,2.901062,2.7574463,5.2085114,5.6202393,5.0361633c12.4850464,0.0765991,24.9700317-0.0382996,37.4648438,0.0288239
	c4.6244507-0.1628571,9.1912842,2.4892578,11.2403564,6.6637268c2.3647461,4.9785156,1.0435791,10.6755219,1.3689575,15.9893341
	c-0.2965698,5.4861603,0.8331909,11.2021179-0.9859619,16.5063629c-1.7999878,4.6244659-6.711792,7.6499939-11.6331177,7.3724213
	c-29.3648682-0.0288086-58.7297363,0.0859833-88.0848389-0.0958405c-3.9926147,0.2776642-7.9659424-1.6661377-10.263916-4.9020233
	c-2.010498-2.6426392-2.4509277-6.0607147-2.3839111-9.2779236c0.0670166-51.7210236-0.0288086-103.4325638,0.0477905-155.1539612
	C747.362915,26.0158405,750.6563721,20.9028893,755.6254883,19.2753277L755.6254883,19.2753277z"/>
</svg>
