<?xml version="1.0" encoding="iso-8859-1"?>
<!-- Generator: Adobe Illustrator 19.2.0, SVG Export Plug-In . SVG Version: 6.00 Build 0)  -->
<svg version="1.1" id="Layer_1" xmlns="http://www.w3.org/2000/svg" xmlns:xlink="http://www.w3.org/1999/xlink" x="0px" y="0px"
	 viewBox="0 0 178 100" style="enable-background:new 0 0 178 100;" xml:space="preserve">
<g id="Layer_1_1_">
	<g>
		<path d="M133.142,76.903c-1.346-0.153-2.703-0.201-4.038-0.464c-3.81-0.751-7.308-2.113-10.065-4.994
			c-2.371-2.477-3.595-5.475-4.091-8.814c-0.17-1.141-0.243-2.288-0.267-3.443c-0.014-0.665,0.394-0.655,0.834-0.693
			c0.444-0.039,0.732,0.03,0.766,0.597c0.104,1.746,0.266,3.486,0.701,5.191c1.164,4.57,4.009,7.651,8.31,9.462
			c0.41,0.173,0.574,0.093,0.503-0.377c-0.511-3.368-0.538-6.765-0.588-10.16c-0.028-1.924-0.229-3.824-0.902-5.642
			c-1.069-2.882-3.273-4.445-6.14-5.215c-1.7-0.457-3.437-0.644-5.192-0.645c-6.549-0.005-13.098,0.005-19.648-0.014
			c-0.616-0.002-0.835,0.161-0.805,0.799c0.077,1.665-0.069,3.334,0.082,5c0.099,1.095,0.622,2.043,1.008,3.033
			c1.86,4.777,3.755,9.54,5.637,14.308c0.068,0.172,0.137,0.345,0.192,0.521c0.038,0.123,0.03,0.234-0.11,0.312
			c-0.533,0.297-1.571-0.056-1.798-0.624c-1.403-3.519-2.804-7.038-4.206-10.557c-0.194-0.486-0.387-0.972-0.581-1.458
			c-0.037,0.01-0.074,0.019-0.111,0.029c-0.034,0.713-0.094,1.425-0.096,2.138c-0.01,3.233-0.002,6.467-0.008,9.7
			c-0.001,0.254,0.119,0.606-0.176,0.729c-0.38,0.158-0.814,0.134-1.21,0.006c-0.209-0.068-0.17-0.308-0.172-0.489
			c-0.006-0.597-0.004-1.194-0.004-1.792c0.001-4.551,0.002-9.103,0.002-13.654c0-0.812-0.002-0.815-0.826-0.815
			c-8.073-0.001-16.146-0.001-24.22,0c-0.832,0-0.834,0.003-0.834,0.871c0,5.005,0.002,10.009,0.002,15.014
			c0,0.936-0.009,0.864-0.899,0.957c-1.029,0.108-1.688-0.246-2.205-1.137c-0.515-0.887-1.166-1.695-1.762-2.535
			c-0.081-0.114-0.129-0.304-0.287-0.297c-0.205,0.009-0.201,0.237-0.259,0.376c-0.424,1.028-0.829,2.063-1.254,3.09
			c-0.172,0.416-1.532,0.72-1.84,0.415c-0.193-0.192-0.017-0.39,0.055-0.566c0.571-1.412,1.115-2.837,1.745-4.224
			c0.292-0.643,0.219-1.1-0.187-1.67c-4.875-6.843-9.72-13.706-14.579-20.56c-5.157-7.274-10.32-14.543-15.481-21.814
			c-0.082-0.116-0.169-0.229-0.368-0.498c0,0.395,0,0.626,0,0.857c-0.001,15.714-0.002,31.428-0.003,47.142
			c0,0.206,0.001,0.412-0.001,0.618c-0.007,0.696-0.738,1.085-1.363,0.731c-0.15-0.085-0.174-0.219-0.18-0.364
			c-0.008-0.206-0.008-0.412-0.008-0.618c0-16.455,0-32.911,0-49.366c0-1.049,0.005-0.989,1.04-1.069
			c0.867-0.067,1.371,0.254,1.867,0.957C37.6,37.201,46.105,49.194,54.606,61.19c1.5,2.117,3.003,4.232,4.51,6.344
			c0.1,0.14,0.152,0.391,0.382,0.341c0.169-0.037,0.187-0.254,0.247-0.403c1.17-2.88,2.34-5.76,3.504-8.643
			c0.243-0.601,0.291-1.234,0.291-1.879c-0.007-10.606-0.008-21.213-0.011-31.819c0-0.838,0.036-0.877,0.784-0.877
			c0.733,0,0.779,0.044,0.779,0.821c0.002,8.362,0.003,16.723,0.004,25.085c0,1.212,0,2.425,0,3.708
			c0.347-0.126,0.341-0.34,0.401-0.489c3.811-9.407,7.614-18.818,11.426-28.224c0.126-0.311,0.141-0.766,0.531-0.852
			c0.54-0.119,1.112-0.121,1.654,0.007c0.313,0.074,0.342,0.438,0.446,0.699c2.469,6.241,4.939,12.481,7.4,18.726
			c1.23,3.122,2.441,6.252,3.661,9.378c0.043,0.111,0.091,0.22,0.137,0.331c0.07-0.003,0.14-0.005,0.21-0.008
			c0-1.239,0-2.477,0-3.716c0.002-8.176,0.004-16.352,0.007-24.529c0-0.94,0.002-0.942,0.966-0.942
			c6.405-0.001,12.81-0.011,19.215,0.005c2.576,0.006,5.142,0.148,7.65,0.824c0.758,0.204,1.493,0.471,2.207,0.79
			c0.331,0.148,0.602,0.153,0.925-0.031c3.339-1.902,6.972-2.647,10.776-2.725c3.018-0.061,6.009,0.094,8.916,1.006
			c5.929,1.86,9.176,5.973,10.096,12.033c0.108,0.711,0.151,1.431,0.22,2.147c0.043,0.441-0.201,0.599-0.599,0.564
			c-0.37-0.033-0.865,0.197-0.935-0.477c-0.154-1.474-0.362-2.941-0.782-4.369c-1.199-4.066-3.902-6.683-7.831-8.109
			c-2.05-0.744-4.181-1.029-6.351-1.158c-3.284-0.196-6.491,0.131-9.62,1.163c-0.783,0.258-1.543,0.572-2.281,0.942
			c-0.301,0.151-0.3,0.26-0.047,0.471c2.644,2.207,3.791,5.139,4.138,8.479c0.295,2.847,0.001,5.589-1.287,8.177
			c-0.247,0.496-0.522,0.988-0.854,1.429c-0.339,0.45-0.261,0.625,0.261,0.799c2.465,0.821,4.992,1.399,7.518,1.987
			c3.508,0.817,7.02,1.618,10.449,2.736c1.591,0.519,3.127,1.176,4.525,2.101c2.424,1.603,3.891,3.858,4.439,6.712
			c0.031,0.16,0.074,0.318,0.112,0.477c0,1.771,0,3.542,0,5.314c-0.056,0.197-0.12,0.392-0.166,0.592
			c-0.527,2.312-1.663,4.274-3.392,5.893c-2.641,2.473-5.858,3.728-9.341,4.429c-1.291,0.26-2.604,0.306-3.907,0.455
			C135.036,76.903,134.089,76.903,133.142,76.903z M92.526,37.939c0,3.809,0.003,7.617-0.005,11.426
			c-0.001,0.419,0.028,0.702,0.579,0.696c6.894-0.085,13.793,0.19,20.683-0.149c2.958-0.146,5.659-1.191,8.063-2.955
			c0.382-0.28,0.376-0.437-0.044-0.683c-1.307-0.763-2.485-1.692-3.433-2.884c-1.341-1.686-1.928-3.648-2.105-5.767
			c-0.318-3.8,0.61-7.18,3.289-9.989c0.47-0.493,0.471-0.508-0.183-0.716c-2.234-0.712-4.532-1.019-6.869-1.023
			c-6.403-0.01-12.805,0.005-19.208-0.018c-0.652-0.002-0.783,0.222-0.779,0.821C92.538,30.446,92.526,34.193,92.526,37.939z
			 M117.012,50.713c1.018,0.261,1.877,0.458,2.721,0.704c2.711,0.789,4.78,2.342,5.906,5.009c0.525,1.244,0.825,2.544,0.979,3.877
			c0.313,2.723,0.231,5.466,0.364,8.198c0.087,1.789,0.229,3.57,0.506,5.34c0.071,0.452,0.28,0.684,0.728,0.775
			c1.291,0.262,2.587,0.474,3.904,0.566c3.816,0.265,7.565,0.019,11.177-1.376c2.413-0.932,4.531-2.298,6.054-4.413
			c2.143-2.976,2.485-6.301,1.574-9.775c-0.846-3.226-3.123-5.182-6.037-6.517c-2.506-1.148-5.182-1.735-7.847-2.365
			c-4.302-1.018-8.674-1.767-12.826-3.356c-0.215-0.082-0.385-0.079-0.566,0.078C121.778,49.095,119.575,50.067,117.012,50.713z
			 M78.309,26.141c-0.224,0.14-0.245,0.384-0.326,0.584c-4.01,9.943-8.015,19.887-12.019,29.832
			c-0.265,0.658-0.256,0.671,0.464,0.671c7.72,0.001,15.439,0.001,23.159,0c0.812,0,0.811-0.003,0.508-0.787
			c-3.802-9.848-7.603-19.696-11.411-29.541C78.585,26.643,78.554,26.341,78.309,26.141z M126.068,37.481
			c0-0.452,0.029-0.907-0.005-1.357c-0.225-3.065-1.327-5.697-3.772-7.684c-0.466-0.378-0.754-0.349-1.196,0.036
			c-4.209,3.666-5.196,12.86,1.762,16.481c0.583,0.303,0.842,0.206,1.18-0.3C125.492,42.48,126.132,40.08,126.068,37.481z
			 M63.495,62.941c-0.171,0.064-0.165,0.232-0.215,0.352c-0.721,1.746-1.38,3.52-2.171,5.234c-0.405,0.878-0.379,1.544,0.275,2.261
			c0.453,0.497,0.788,1.101,1.185,1.65c0.27,0.374,0.555,0.737,0.927,1.228C63.495,69.982,63.495,66.465,63.495,62.941z"/>
	</g>
</g>
</svg>
